<?xml version="1.0" encoding="UTF-8"?>
<svg version="1.1" xmlns="http://www.w3.org/2000/svg" width="1246" height="637">
<path d="M0 0 C411.18 0 822.36 0 1246 0 C1246 210.21 1246 420.42 1246 637 C834.82 637 423.64 637 0 637 C0 426.79 0 216.58 0 0 Z " fill="#FEFEFE" transform="translate(0,0)"/>
<path d="M0 0 C8.73199396 5.6016565 11.48878912 15.42121654 14 25 C14.77308903 28.60897327 15.39989445 32.23368156 16 35.875 C16.15210938 36.75929687 16.30421875 37.64359375 16.4609375 38.5546875 C17.38215274 43.99136758 18.21740825 49.43854673 19.02189636 54.89344788 C20.86326059 67.36829277 22.99011096 79.78546287 25.17407227 92.2043457 C25.6444122 94.88431087 26.10962602 97.56512721 26.57421875 100.24609375 C26.71792404 101.05437119 26.86162933 101.86264862 27.00968933 102.69541931 C27.66828251 106.51141634 28.17752808 110.10945999 28 114 C28.66 114 29.32 114 30 114 C30.08741455 113.34902344 30.1748291 112.69804687 30.26489258 112.02734375 C31.25656264 107.94341525 32.97896631 104.35683961 34.76171875 100.5625 C35.33537674 99.3254985 35.33537674 99.3254985 35.92062378 98.06350708 C37.17052309 95.37296266 38.42861367 92.68634987 39.6875 90 C40.555442 88.13924636 41.42319787 86.2784059 42.29077148 84.41748047 C79.15537531 5.46622716 79.15537531 5.46622716 97.453125 -1.1875 C104.37594552 -3.39600716 110.98067964 -4.21239023 118.25 -4.375 C118.92369629 -4.40110352 119.59739258 -4.42720703 120.29150391 -4.45410156 C125.34270487 -4.47159274 128.20942088 -3.29758472 132 0 C136.00783235 5.4139416 135.37613429 11.36782604 135.25 17.8125 C135.24484375 18.85470703 135.2396875 19.89691406 135.234375 20.97070312 C135.18987758 25.40097769 135.04837008 29.73444877 134.5 34.1315918 C133.8567939 39.69022868 133.81936873 45.22168904 133.796875 50.8125 C133.79117493 51.93906006 133.78547485 53.06562012 133.77960205 54.22631836 C133.77018925 56.60985387 133.76363293 58.99340217 133.75976562 61.37695312 C133.75017832 64.93384268 133.71916835 68.49012363 133.6875 72.046875 C133.5571618 100.28522203 136.19651036 130.31394635 147.1171875 156.69921875 C148.45603299 160.18851075 148.76150858 163.37245005 148 167 C144.59560837 173.37988352 138.19865252 176.77037174 132 180 C131.28585937 180.41636719 130.57171875 180.83273437 129.8359375 181.26171875 C123.9604719 184.22021291 118.20699609 184.38278956 111.75 184.4375 C110.88584473 184.44765137 110.02168945 184.45780273 109.13134766 184.46826172 C102.68369509 184.3796299 98.44165834 183.08434249 93.4375 178.8125 C83.09398857 166.87767912 80.8603597 150.66705816 80.88647461 135.20703125 C80.88632858 134.47434525 80.88618256 133.74165924 80.8860321 132.98677063 C80.88672177 130.59531563 80.89446924 128.20394118 80.90234375 125.8125 C80.9042113 124.1424158 80.90563361 122.47233104 80.90663147 120.80224609 C80.91043012 116.42932596 80.92023746 112.0564396 80.93133545 107.68353271 C80.94160689 103.21220354 80.94614132 98.74086885 80.95117188 94.26953125 C80.96186236 85.51300542 80.97890655 76.75650692 81 68 C72.99994113 83.36506742 65.04074499 98.74591083 57.3125 114.25 C56.91201447 115.05119263 56.51152893 115.85238525 56.09890747 116.67785645 C51.27784434 126.32307917 46.53437247 135.99568145 41.9375 145.75 C38.67809293 152.64281379 35.28314067 159.43419327 31.625 166.125 C31.23175537 166.85428711 30.83851074 167.58357422 30.43334961 168.33496094 C27.64433093 173.32627494 24.74868388 177.55332427 19.55078125 180.2890625 C13.45520178 181.98798358 6.4830993 182.05092571 0.625 179.5 C-10.19249188 172.97374457 -13.64803248 158.72933519 -16.58569336 147.18408203 C-20.75567749 129.72267383 -23.7168077 111.89709596 -26.26000977 94.13354492 C-27.0126357 88.88636098 -27.79668564 83.64412636 -28.5859375 78.40234375 C-28.72281982 77.49158081 -28.85970215 76.58081787 -29.00073242 75.64245605 C-29.33355168 73.4282633 -29.66664449 71.21411208 -30 69 C-30.1952124 69.57977097 -30.3904248 70.15954193 -30.59155273 70.75688171 C-32.6639888 76.90918218 -34.74230711 83.05947468 -36.82373047 89.20874023 C-37.59503226 91.48982766 -38.36493843 93.77138757 -39.13330078 96.0534668 C-43.03308871 107.63303317 -46.97898802 119.18517711 -51.31640625 130.609375 C-51.63017212 131.43769333 -51.94393799 132.26601166 -52.26721191 133.11943054 C-59.3737764 151.57736369 -68.41921179 169.52909201 -87.2265625 178.2265625 C-87.81179688 178.48179687 -88.39703125 178.73703125 -89 179 C-90.299375 179.5878125 -90.299375 179.5878125 -91.625 180.1875 C-97.00108799 182.026688 -102.48882378 182.20817309 -108.125 182.25 C-109.17880859 182.2809375 -109.17880859 182.2809375 -110.25390625 182.3125 C-113.3223409 182.33570177 -115.68701017 182.14324926 -118.4921875 180.859375 C-120 179 -120 179 -120.61328125 176.3046875 C-119.73044388 171.54748742 -117.19014703 168.82742337 -114.1875 165.125 C-98.52048479 144.82519943 -86.42155711 121.54962296 -74.53173828 98.90771484 C-73.08724448 96.16561711 -71.62342757 93.43493346 -70.15234375 90.70703125 C-63.0865542 77.53032263 -56.7781414 64.03568197 -50.57666016 50.43408203 C-49.04595543 47.10009432 -47.48691029 43.7809812 -45.91796875 40.46484375 C-44.98688871 38.47660486 -44.05589423 36.48832589 -43.125 34.5 C-42.68986084 33.59258057 -42.25472168 32.68516113 -41.80639648 31.75024414 C-41.41911377 30.91485107 -41.03183105 30.07945801 -40.6328125 29.21875 C-40.29137207 28.49623047 -39.94993164 27.77371094 -39.59814453 27.02929688 C-38.88069137 24.59522721 -39.10465078 23.35208303 -40 21 C-41.58762273 19.23675413 -41.58762273 19.23675413 -43.5 17.625 C-45.79365362 15.38379999 -47.03021288 13.93694704 -48.4375 11 C-47.82012948 6.76660216 -45.9292443 5.25686085 -42.61328125 2.6796875 C-30.15084416 -5.3305486 -13.22465367 -7.79585615 0 0 Z " fill="#010101" transform="translate(889,90)"/>
<path d="M0 0 C8.73199396 5.6016565 11.48878912 15.42121654 14 25 C14.77308903 28.60897327 15.39989445 32.23368156 16 35.875 C16.15210938 36.75929687 16.30421875 37.64359375 16.4609375 38.5546875 C17.38215274 43.99136758 18.21740825 49.43854673 19.02189636 54.89344788 C20.86326059 67.36829277 22.99011096 79.78546287 25.17407227 92.2043457 C25.6444122 94.88431087 26.10962602 97.56512721 26.57421875 100.24609375 C26.71792404 101.05437119 26.86162933 101.86264862 27.00968933 102.69541931 C27.66828251 106.51141634 28.17752808 110.10945999 28 114 C28.66 114 29.32 114 30 114 C30.08741455 113.34902344 30.1748291 112.69804687 30.26489258 112.02734375 C31.25656264 107.94341525 32.97896631 104.35683961 34.76171875 100.5625 C35.33537674 99.3254985 35.33537674 99.3254985 35.92062378 98.06350708 C37.17052309 95.37296266 38.42861367 92.68634987 39.6875 90 C40.555442 88.13924636 41.42319787 86.2784059 42.29077148 84.41748047 C79.15537531 5.46622716 79.15537531 5.46622716 97.453125 -1.1875 C104.37594552 -3.39600716 110.98067964 -4.21239023 118.25 -4.375 C118.92369629 -4.40110352 119.59739258 -4.42720703 120.29150391 -4.45410156 C125.34270487 -4.47159274 128.20942088 -3.29758472 132 0 C136.00783235 5.4139416 135.37613429 11.36782604 135.25 17.8125 C135.24484375 18.85470703 135.2396875 19.89691406 135.234375 20.97070312 C135.18987758 25.40097769 135.04837008 29.73444877 134.5 34.1315918 C133.8567939 39.69022868 133.81936873 45.22168904 133.796875 50.8125 C133.79117493 51.93906006 133.78547485 53.06562012 133.77960205 54.22631836 C133.77018925 56.60985387 133.76363293 58.99340217 133.75976562 61.37695312 C133.75017832 64.93384268 133.71916835 68.49012363 133.6875 72.046875 C133.5571618 100.28522203 136.19651036 130.31394635 147.1171875 156.69921875 C148.45603299 160.18851075 148.76150858 163.37245005 148 167 C144.59560837 173.37988352 138.19865252 176.77037174 132 180 C131.28585937 180.41636719 130.57171875 180.83273437 129.8359375 181.26171875 C123.9604719 184.22021291 118.20699609 184.38278956 111.75 184.4375 C110.88584473 184.44765137 110.02168945 184.45780273 109.13134766 184.46826172 C102.68369509 184.3796299 98.44165834 183.08434249 93.4375 178.8125 C83.09398857 166.87767912 80.8603597 150.66705816 80.88647461 135.20703125 C80.88632858 134.47434525 80.88618256 133.74165924 80.8860321 132.98677063 C80.88672177 130.59531563 80.89446924 128.20394118 80.90234375 125.8125 C80.9042113 124.1424158 80.90563361 122.47233104 80.90663147 120.80224609 C80.91043012 116.42932596 80.92023746 112.0564396 80.93133545 107.68353271 C80.94160689 103.21220354 80.94614132 98.74086885 80.95117188 94.26953125 C80.96186236 85.51300542 80.97890655 76.75650692 81 68 C72.99994113 83.36506742 65.04074499 98.74591083 57.3125 114.25 C56.91201447 115.05119263 56.51152893 115.85238525 56.09890747 116.67785645 C51.27784434 126.32307917 46.53437247 135.99568145 41.9375 145.75 C38.67809293 152.64281379 35.28314067 159.43419327 31.625 166.125 C31.23175537 166.85428711 30.83851074 167.58357422 30.43334961 168.33496094 C27.64433093 173.32627494 24.74868388 177.55332427 19.55078125 180.2890625 C13.45520178 181.98798358 6.4830993 182.05092571 0.625 179.5 C-10.19249188 172.97374457 -13.64803248 158.72933519 -16.58569336 147.18408203 C-20.75567749 129.72267383 -23.7168077 111.89709596 -26.26000977 94.13354492 C-27.0126357 88.88636098 -27.79668564 83.64412636 -28.5859375 78.40234375 C-28.72281982 77.49158081 -28.85970215 76.58081787 -29.00073242 75.64245605 C-29.33355168 73.4282633 -29.66664449 71.21411208 -30 69 C-30.1952124 69.57977097 -30.3904248 70.15954193 -30.59155273 70.75688171 C-32.6639888 76.90918218 -34.74230711 83.05947468 -36.82373047 89.20874023 C-37.59503226 91.48982766 -38.36493843 93.77138757 -39.13330078 96.0534668 C-43.03308871 107.63303317 -46.97898802 119.18517711 -51.31640625 130.609375 C-51.63017212 131.43769333 -51.94393799 132.26601166 -52.26721191 133.11943054 C-59.3737764 151.57736369 -68.41921179 169.52909201 -87.2265625 178.2265625 C-87.81179687 178.48179687 -88.39703125 178.73703125 -89 179 C-90.299375 179.5878125 -90.299375 179.5878125 -91.625 180.1875 C-97.00108799 182.026688 -102.48882378 182.20817309 -108.125 182.25 C-109.17880859 182.2809375 -109.17880859 182.2809375 -110.25390625 182.3125 C-113.3223409 182.33570177 -115.68701017 182.14324926 -118.4921875 180.859375 C-120 179 -120 179 -120.61328125 176.3046875 C-119.73044388 171.54748742 -117.19014703 168.82742337 -114.1875 165.125 C-98.52048479 144.82519943 -86.42155711 121.54962296 -74.53173828 98.90771484 C-73.08724448 96.16561711 -71.62342757 93.43493346 -70.15234375 90.70703125 C-63.0865542 77.53032263 -56.7781414 64.03568197 -50.57666016 50.43408203 C-49.04595543 47.10009432 -47.48691029 43.7809812 -45.91796875 40.46484375 C-44.98688871 38.47660486 -44.05589423 36.48832589 -43.125 34.5 C-42.68986084 33.59258057 -42.25472168 32.68516113 -41.80639648 31.75024414 C-41.41911377 30.91485107 -41.03183105 30.07945801 -40.6328125 29.21875 C-40.29137207 28.49623047 -39.94993164 27.77371094 -39.59814453 27.02929688 C-38.88069137 24.59522721 -39.10465078 23.35208303 -40 21 C-41.58762273 19.23675413 -41.58762273 19.23675413 -43.5 17.625 C-45.79365362 15.38379999 -47.03021288 13.93694704 -48.4375 11 C-47.82012948 6.76660216 -45.9292443 5.25686085 -42.61328125 2.6796875 C-30.15084416 -5.3305486 -13.22465367 -7.79585615 0 0 Z " fill="#010101" transform="translate(203,90)"/>
<path d="M0 0 C6.22128909 5.24184416 9.48893541 10.24805624 12.0546875 17.9453125 C12.65094778 26.1209583 12.09723916 33.31917652 9.0546875 40.9453125 C8.78785156 41.61949219 8.52101563 42.29367188 8.24609375 42.98828125 C-0.41742179 62.27904252 -19.96651511 76.05702851 -35.9453125 88.9453125 C-32.46520739 101.02650641 -22.72707847 111.23860436 -13.9453125 119.9453125 C-13.2853125 120.2753125 -12.6253125 120.6053125 -11.9453125 120.9453125 C-11.67376343 120.12957764 -11.67376343 120.12957764 -11.39672852 119.29736328 C-10.07249238 115.32167716 -8.74535391 111.34701936 -7.41015625 107.375 C-7.15814453 106.62347656 -6.90613281 105.87195313 -6.64648438 105.09765625 C-6.13461981 103.57122636 -5.62158633 102.04518798 -5.10742188 100.51953125 C-4.85669922 99.77058594 -4.60597656 99.02164063 -4.34765625 98.25 C-4.10345947 97.52321045 -3.8592627 96.7964209 -3.60766602 96.04760742 C-2.99867617 94.11468757 -2.50883036 92.14529002 -2.03125 90.17578125 C0.23247932 83.44159367 6.37888417 79.50539855 12.32421875 76.0390625 C18.33421191 73.07254667 23.33473969 70.8253212 30.0546875 71.9453125 C32.45651897 73.63611227 32.98985098 74.61409336 33.55859375 77.51953125 C33.95111438 98.37546086 20.90417188 115.66272971 8.3046875 131.15234375 C6.00927286 133.9159147 6.00927286 133.9159147 4.0546875 136.9453125 C4.786875 137.21085938 5.5190625 137.47640625 6.2734375 137.75 C9.03727561 138.9378293 11.13828692 140.29111344 13.5546875 142.0703125 C16.4879053 144.1939091 19.42444981 146.19784651 22.55859375 148.0078125 C23.14898438 148.35183105 23.739375 148.69584961 24.34765625 149.05029297 C26.04666283 150.02965962 27.75557277 150.99178473 29.46484375 151.953125 C32.0546875 153.9453125 32.0546875 153.9453125 33.0234375 156.41796875 C33.11315486 163.67386008 27.78716499 170.79310308 23.0546875 175.9453125 C14.79301137 183.59387723 7.578597 186.54469128 -3.66259766 186.57617188 C-14.35341259 186.13020509 -23.16367099 180.19553062 -31.078125 173.328125 C-33.13885108 171.80198058 -34.42308181 171.32646125 -36.9453125 170.9453125 C-39.69053013 172.08156835 -42.25049853 173.27722338 -44.8828125 174.6328125 C-57.45615827 180.8425553 -69.19988378 184.1239207 -83.2578125 184.1328125 C-84.26521484 184.14505859 -85.27261719 184.15730469 -86.31054688 184.16992188 C-96.50729828 184.18985038 -104.7648818 182.38551758 -112.9453125 175.9453125 C-115.37852344 173.13972336 -117.18920511 170.20831072 -118.9453125 166.9453125 C-119.5640625 165.9140625 -120.1828125 164.8828125 -120.8203125 163.8203125 C-124.19777022 155.10364018 -122.51775916 144.2521249 -119.26171875 135.77734375 C-112.72415958 121.71286186 -102.34361115 111.60374067 -90.14453125 102.453125 C-85.70509118 99.0595492 -85.70509118 99.0595492 -81.9453125 94.9453125 C-82.08262679 92.19583329 -82.42176196 90.23616996 -83.1328125 87.6328125 C-88.39379287 64.14021988 -85.52544424 39.3828663 -72.87109375 18.7890625 C-64.60055845 6.57618279 -52.90065113 -2.66913251 -38.48828125 -6.4609375 C-25.02636916 -8.71695805 -11.53310523 -8.04564105 0 0 Z " fill="#010101" transform="translate(667.9453125,90.0546875)"/>
<path d="M0 0 C0.76932861 -0.01474365 1.53865723 -0.0294873 2.33129883 -0.04467773 C6.00887325 0.02264167 8.26972987 0.41441936 11.59765625 2.09765625 C13.84389196 4.91549866 14.1948257 6.76055648 13.95751953 10.34082031 C13.22760041 14.44605149 11.65221363 18.12756152 10 21.9375 C9.26355509 23.70671183 8.52789423 25.47625021 7.79296875 27.24609375 C7.23295166 28.57616455 7.23295166 28.57616455 6.66162109 29.93310547 C4.98929655 33.93375747 3.39319777 37.96243873 1.8125 42 C1.5436499 42.67144043 1.2747998 43.34288086 0.99780273 44.03466797 C-7.02461048 64.46655907 -12.37372666 86.73233101 -15.16113281 108.48876953 C-15.42176727 110.44444891 -15.73653888 112.39269362 -16.0546875 114.33984375 C-17.53196018 124.3063752 -17.64923062 134.25586301 -17.6875 144.3125 C-17.69276703 145.01787903 -17.69803406 145.72325806 -17.70346069 146.45001221 C-17.7512295 154.72713075 -17.34847542 162.71456031 -15.90283203 170.89331055 C-15.30673475 174.3125821 -14.9969275 177.11134876 -15.4375 180.5625 C-21.40806097 187.8124669 -33.33229977 191.92928023 -42.4375 193.5625 C-54.89440677 194.61396224 -54.89440677 194.61396224 -60.4375 190.5625 C-65.99254172 183.73773446 -66.71028771 176.03027048 -67.0625 167.5625 C-67.10117187 166.78777344 -67.13984375 166.01304687 -67.1796875 165.21484375 C-67.27271357 163.33106585 -67.35613175 161.44681744 -67.4375 159.5625 C-68.10394531 160.25214844 -68.77039063 160.94179688 -69.45703125 161.65234375 C-75.78243483 168.10160138 -82.28111494 174.0246999 -89.4375 179.5625 C-90.33339844 180.26375 -91.22929688 180.965 -92.15234375 181.6875 C-104.47827856 191.02479351 -115.01095374 195.40036353 -130.4375 194.5625 C-137.25749134 193.4906188 -141.53813683 187.84380451 -145.4375 182.5625 C-152.64090137 170.08650588 -150.39118073 151.87960932 -147.47265625 138.359375 C-142.74690376 121.02567153 -134.03240811 105.20989719 -122.4375 91.5625 C-121.96795898 91.00788086 -121.49841797 90.45326172 -121.01464844 89.88183594 C-110.42117954 77.53105581 -95.08157672 62.78597566 -77.99609375 61.25390625 C-68.97341389 60.8726972 -62.65235811 61.52317886 -55.4375 67.5625 C-54.4314533 68.55641652 -53.43044932 69.55549868 -52.4375 70.5625 C-52.17646484 69.7782666 -51.91542969 68.9940332 -51.64648438 68.18603516 C-46.57080317 53.01010392 -41.49552247 37.9574095 -34.4375 23.5625 C-33.91542969 22.47839844 -33.39335938 21.39429688 -32.85546875 20.27734375 C-28.15282814 11.05818287 -22.86035813 5.19978248 -13.0390625 1.4453125 C-8.64343412 0.36785912 -4.5133221 0.05793914 0 0 Z " fill="#010101" transform="translate(934.4375,354.4375)"/>
<path d="M0 0 C1.5173877 0.01075562 1.5173877 0.01075562 3.06542969 0.02172852 C9.72286301 0.09245196 16.35429032 0.34312481 22.99804688 0.76318359 C28.53303385 1.09797946 34.06260704 1.27891489 39.60546875 1.40625 C40.37233002 1.42462418 41.13919128 1.44299835 41.92929077 1.46192932 C45.04803005 1.53607513 48.16664619 1.60996848 51.2857666 1.66622925 C74.14802586 2.07970623 74.14802586 2.07970623 81.3125 5.9375 C84.54535645 11.94137626 84.16911432 19.20616133 82.36328125 25.703125 C79.69971056 31.59220112 75.4818971 35.0226051 69.6875 37.8125 C56.02992931 42.35646619 41.30421616 43.09062004 27.0625 44.1875 C26.92263672 44.72826172 26.78277344 45.26902344 26.63867188 45.82617188 C22.72610915 60.83481281 18.11701539 75.52593014 13.0625 90.1875 C14.12041748 90.08356934 14.12041748 90.08356934 15.19970703 89.97753906 C23.12135339 89.25187235 30.98459922 88.97284623 38.9375 88.9375 C40.12085938 88.916875 41.30421875 88.89625 42.5234375 88.875 C53.24968038 88.82668359 53.24968038 88.82668359 58.0625 92.1875 C60.44840617 94.57340617 60.43498852 95.2790793 60.5625 98.5625 C60.37887171 107.63898388 54.58608431 117.92063081 48.0625 124.1875 C43.43901807 126.96374563 39.54397812 127.63924602 34.25 127.6640625 C33.5180542 127.67964203 32.7861084 127.69522156 32.03198242 127.71127319 C29.70883206 127.75849044 27.38597535 127.78643692 25.0625 127.8125 C22.73923616 127.84917803 20.41613164 127.88997711 18.09301758 127.93515015 C16.65284594 127.96203943 15.21255971 127.98353262 13.7722168 127.99868774 C9.77526374 128.06075185 5.98674246 128.42691102 2.0625 129.1875 C1.83175781 129.89132812 1.60101563 130.59515625 1.36328125 131.3203125 C-13.59545406 176.61039648 -13.59545406 176.61039648 -32.9375 187.1875 C-38.81678058 189.99932984 -45.99626581 190.35921827 -52.25 188.5 C-57.60585323 186.06552126 -61.28376849 182.49496301 -63.9375 177.1875 C-64.58440186 169.53319562 -63.4626009 162.70807084 -61.375 155.375 C-61.074729 154.29444336 -60.77445801 153.21388672 -60.46508789 152.10058594 C-52.8605381 125.42594278 -43.92307409 99.0750554 -34.3125 73.0625 C-34.02494843 72.2840271 -33.73739685 71.5055542 -33.44113159 70.70349121 C-30.13287636 61.77936107 -26.68318125 52.93863963 -22.9375 44.1875 C-24.608125 44.2803125 -24.608125 44.2803125 -26.3125 44.375 C-32.62688826 44.35252887 -38.65306475 43.09119604 -43.5625 39 C-45.42885405 35.18245762 -45.95189429 32.2728688 -44.9375 28.1875 C-39.99170719 17.92728386 -31.53431166 6.94628611 -20.9375 2.1875 C-13.9992048 0.21228056 -7.17065295 -0.09887591 0 0 Z " fill="#010101" transform="translate(280.9375,360.8125)"/>
<path d="M0 0 C3.86134246 2.87125465 6.10369154 5.35509915 7.1953125 10.12109375 C7.3377849 11.49546262 7.4581805 12.87220988 7.5625 14.25 C7.63686279 15.04365967 7.71122559 15.83731934 7.7878418 16.6550293 C8.29719506 22.58317132 8.57172505 28.51768194 8.82421875 34.4609375 C8.96346804 37.68241471 9.10522992 40.90376603 9.25 44.125 C9.28659729 44.94036224 9.32319458 45.75572449 9.36090088 46.59579468 C9.9055334 58.21152124 10.9837085 69.59700167 12.9375 81.0625 C13.25811401 82.96189331 13.25811401 82.96189331 13.58520508 84.8996582 C14.3495057 90.91888417 14.3495057 90.91888417 17.4375 95.8125 C27.00001384 76.63536052 35.34062207 56.0972597 40.6015625 35.2890625 C44.25020045 20.9262646 49.56477459 9.55779362 62.66015625 1.43359375 C68.08175844 -1.31067402 73.41581261 -2.22534917 79.4375 -1.1875 C82.0625 0.3125 82.0625 0.3125 83.4375 2.8125 C83.814042 8.89002001 82.94609201 13.99237239 81.25 19.8125 C80.99299316 20.6984082 80.73598633 21.58431641 80.47119141 22.49707031 C67.07651091 66.47317925 44.84993378 111.64646294 13.50390625 145.5546875 C11.65857512 147.57094722 9.92478077 149.64135946 8.1875 151.75 C-4.45805611 166.21042759 -22.12315327 178.33906303 -41.61328125 180.0859375 C-47.88108165 180.28110254 -52.84856257 180.30619445 -57.97265625 176.40625 C-62.72521133 171.64201788 -63.79655518 167.09322757 -63.9375 160.4375 C-63.48646712 148.57396845 -60.9063631 140.2244625 -53.03125 131.0234375 C-51.5625 129.8125 -51.5625 129.8125 -48.5 129.375 C-44.94520636 129.76997707 -43.14729785 130.35791004 -40 131.8125 C-32.10479833 135.19443852 -23.29375902 134.98054431 -15.1875 132.3125 C-13.99125 131.8175 -12.795 131.3225 -11.5625 130.8125 C-13.07493869 125.95108992 -14.96542596 121.27841439 -16.88720703 116.5690918 C-19.15428583 111.00014852 -21.36215589 105.40808808 -23.5625 99.8125 C-23.93246094 98.87696289 -24.30242187 97.94142578 -24.68359375 96.97753906 C-30.80574344 81.26209633 -34.49804351 65.1159917 -37.99609375 48.66015625 C-38.14049393 47.98701385 -38.2848941 47.31387146 -38.43367004 46.62033081 C-43.57957045 21.89359693 -43.57957045 21.89359693 -38.5 13.25 C-37.09375 11.4453125 -37.09375 11.4453125 -35.5625 9.8125 C-35.0778125 9.27367187 -34.593125 8.73484375 -34.09375 8.1796875 C-25.14267055 -0.55200275 -11.8848424 -3.96161413 0 0 Z " fill="#010101" transform="translate(1099.5625,141.1875)"/>
<path d="M0 0 C4.55223232 3.75559166 6.09910151 8.10485091 6.8828125 13.88671875 C7.45055933 29.27265786 3.59652307 45.06749325 0.5 60.0625 C1.37398437 58.79019531 1.37398437 58.79019531 2.265625 57.4921875 C8.49446616 48.53621456 15.18840455 40.15748068 22.5 32.0625 C23.28375 31.19367188 24.0675 30.32484375 24.875 29.4296875 C30.13403749 23.88891586 35.85000104 19.80312442 42.5 16.0625 C43.139375 15.70027344 43.77875 15.33804687 44.4375 14.96484375 C49.68413522 12.35367113 55.15696461 12.01706314 60.7109375 13.75390625 C65.5030135 15.88272812 67.99258346 18.34855691 70.5 23.0625 C71.55692054 26.23326163 71.62918539 28.50259896 71.6328125 31.83203125 C71.63410156 32.96833984 71.63539063 34.10464844 71.63671875 35.27539062 C71.63285156 36.46326172 71.62898437 37.65113281 71.625 38.875 C71.62886719 40.05126953 71.63273438 41.22753906 71.63671875 42.43945312 C71.63478516 44.1497168 71.63478516 44.1497168 71.6328125 45.89453125 C71.63168457 46.93327393 71.63055664 47.9720166 71.62939453 49.04223633 C71.5 52.0625 71.5 52.0625 71.00219727 54.9296875 C70.39015018 58.74776637 70.33779928 62.49989358 70.33203125 66.35546875 C70.32870285 67.14214432 70.32537445 67.92881989 70.32194519 68.73933411 C70.31690171 70.39921488 70.31453606 72.05910571 70.31469727 73.71899414 C70.31252175 76.22494781 70.29436893 78.73045279 70.27539062 81.23632812 C70.24058044 91.15827903 70.79821206 100.29532976 73.625 109.875 C74.55735803 113.27144713 75.10575072 115.57943338 74.5 119.0625 C68.69907935 125.66910407 58.44036237 129.54483985 49.765625 130.30078125 C41.80275632 130.49675859 36.57091724 129.69842003 30.5625 124.33203125 C23.14552537 116.59056398 21.99988814 108.29093244 22.1875 97.875 C22.20006836 96.36196289 22.20006836 96.36196289 22.21289062 94.81835938 C22.32068746 88.08752518 22.84528732 81.62704681 24.0625 75 C24.56058794 71.65569525 24.56752584 68.43879201 24.5 65.0625 C14.19582156 69.45557607 7.29738837 82.74784671 1.16503906 91.64746094 C-1.20817841 95.08967021 -3.59683066 98.52099805 -5.98950195 101.94970703 C-7.16800244 103.63878058 -8.34381063 105.32973722 -9.51635742 107.02294922 C-25.34692085 129.75915051 -25.34692085 129.75915051 -31.5 132.0625 C-37.24875602 132.70125067 -42.64302603 132.85834599 -48 130.5625 C-55.17440624 123.38809376 -56.72291033 117.19384327 -56.75 107.375 C-56.74631797 97.79730555 -55.84945186 89.36518795 -53.5 80.0625 C-53.16323666 78.5192542 -52.83151694 76.97490218 -52.50390625 75.4296875 C-47.12365709 50.6453795 -39.51273976 15.80248014 -17.5 0.0625 C-12.48234569 -2.44632716 -5.24373358 -1.40457149 0 0 Z " fill="#020202" transform="translate(698.5,418.9375)"/>
<path d="M0 0 C5.87164711 4.60345122 10.13974129 10.34369737 11.296875 17.80078125 C12.31179332 28.2238313 9.853835 35.74496188 3.546875 44.05078125 C-0.10399069 48.37346051 -3.94100378 51.76304919 -8.703125 54.80078125 C-9.63125 55.41953125 -10.559375 56.03828125 -11.515625 56.67578125 C-16.16303841 58.31604481 -20.82942208 58.55171433 -25.703125 57.80078125 C-28.01171875 56.49609375 -28.01171875 56.49609375 -29.703125 54.80078125 C-30.30635832 49.97491467 -29.66650761 46.46348401 -28.203125 41.86328125 C-26.73560572 36.86672751 -26.36841995 32.22140653 -26.328125 27.05078125 C-26.30782227 25.98742554 -26.30782227 25.98742554 -26.28710938 24.90258789 C-26.32961901 19.85752065 -27.46672702 16.32090838 -29.703125 11.80078125 C-32.60991598 12.13866465 -34.29679775 12.43921143 -36.51171875 14.41015625 C-43.12361724 23.09917393 -48.82767442 33.14638986 -48.890625 44.23828125 C-48.90480469 45.37136719 -48.91898438 46.50445312 -48.93359375 47.671875 C-48.70139015 50.82433402 -48.40883902 52.20278295 -46.703125 54.80078125 C-39.63647891 59.24563388 -31.26441505 61.2279054 -23.265625 63.30078125 C2.09372163 70.20496471 2.09372163 70.20496471 8.296875 79.80078125 C11.22983867 88.59967227 9.39556069 97.47536216 5.85546875 105.7890625 C3.52502776 110.29224547 0.624028 114.00053656 -2.703125 117.80078125 C-3.46625 118.81140625 -4.229375 119.82203125 -5.015625 120.86328125 C-20.06724788 137.3150551 -42.56148418 148.05984072 -64.72265625 149.046875 C-75.80088905 149.38410291 -85.87061156 149.34990885 -95.140625 142.48828125 C-99.73882774 137.66577594 -101.91938168 134.12305196 -102.265625 127.48828125 C-101.91068958 118.85151936 -97.56379537 111.91292128 -91.79296875 105.6875 C-84.21527931 98.84633365 -76.13989055 94.46533706 -65.828125 94.67578125 C-64.67570313 94.69382812 -63.52328125 94.711875 -62.3359375 94.73046875 C-61.46710937 94.75367188 -60.59828125 94.776875 -59.703125 94.80078125 C-58.113362 99.57007026 -59.63376411 102.6598872 -61.640625 106.98828125 C-64.19535885 112.89249082 -66.05904197 118.28194967 -64.703125 124.80078125 C-64.043125 125.79078125 -63.383125 126.78078125 -62.703125 127.80078125 C-58.5826798 128.35545657 -56.28280074 128.10221263 -52.578125 126.17578125 C-47.53182386 122.0070977 -43.1462938 117.45342513 -42.33203125 110.7421875 C-42.09740302 103.97252031 -42.09740302 103.97252031 -44.453125 97.80078125 C-51.30776514 93.58254116 -58.73224638 91.08725798 -66.36743164 88.66992188 C-77.37297235 85.16360975 -89.34424794 81.1854222 -95.703125 70.80078125 C-99.11960965 63.92036078 -98.68267784 55.13085006 -97.015625 47.76171875 C-96.06312754 45.00741358 -94.96522829 42.42721426 -93.703125 39.80078125 C-93.27902344 38.8984375 -92.85492187 37.99609375 -92.41796875 37.06640625 C-81.86670856 16.25779284 -63.38087258 2.87810441 -41.9609375 -5.23828125 C-27.77810189 -9.74143677 -12.50894283 -8.02723561 0 0 Z " fill="#020202" transform="translate(1036.703125,422.19921875)"/>
<path d="M0 0 C0.79921875 -0.01611328 1.5984375 -0.03222656 2.421875 -0.04882812 C10.53309101 -0.0553906 18.08459738 1.72461051 24.05078125 7.49609375 C31.0841528 15.61152246 31.54619438 24.03067322 31.10546875 34.390625 C29.87441079 50.60213888 19.10128839 64.4902199 7.625 75.3125 C-2.61709956 84.05011036 -14.76892254 90.59826659 -28.45703125 90.48046875 C-30.375 90.3125 -30.375 90.3125 -32.375 89.3125 C-30.86715047 95.46580522 -30.86715047 95.46580522 -27.125 100.375 C-21.10380263 102.42768092 -15.7058403 101.16010344 -9.9375 98.9375 C-9.25518311 98.67928467 -8.57286621 98.42106934 -7.86987305 98.1550293 C-0.36288681 95.15206316 6.26848183 90.85454857 12.98071289 86.3996582 C20.08940666 81.69958198 20.08940666 81.69958198 24.625 82.3125 C26.625 84.3125 26.625 84.3125 27.125 87.6875 C26.82751064 96.3303489 21.77165986 103.659989 15.75 109.5 C-2.96265021 125.31815614 -26.6928378 133.8105514 -51.06445312 132.52832031 C-55.71107558 132.09429514 -59.42682814 130.73415197 -63.375 128.3125 C-64.33019531 127.80396484 -64.33019531 127.80396484 -65.3046875 127.28515625 C-70.80351003 123.96934266 -73.56105323 118.94039354 -76.375 113.3125 C-76.71789062 112.64734375 -77.06078125 111.9821875 -77.4140625 111.296875 C-83.46195257 96.94020137 -79.15854975 76.70813478 -73.75 62.75 C-68.8327527 50.83368231 -61.81679056 40.02135105 -53.375 30.3125 C-52.23611328 28.95705078 -52.23611328 28.95705078 -51.07421875 27.57421875 C-43.13237345 18.41639713 -34.18269132 11.62458366 -23.5625 5.875 C-22.64754761 5.37963745 -22.64754761 5.37963745 -21.71411133 4.87426758 C-14.46579198 1.10971297 -8.02906739 -0.03206497 0 0 Z " fill="#010101" transform="translate(603.375,414.6875)"/>
<path d="M0 0 C0.79921875 -0.01611328 1.5984375 -0.03222656 2.421875 -0.04882812 C10.53309101 -0.0553906 18.08459738 1.72461051 24.05078125 7.49609375 C31.0841528 15.61152246 31.54619438 24.03067322 31.10546875 34.390625 C29.87441079 50.60213888 19.10128839 64.4902199 7.625 75.3125 C-2.61709956 84.05011036 -14.76892254 90.59826659 -28.45703125 90.48046875 C-30.375 90.3125 -30.375 90.3125 -32.375 89.3125 C-30.86715047 95.46580522 -30.86715047 95.46580522 -27.125 100.375 C-21.10380263 102.42768092 -15.7058403 101.16010344 -9.9375 98.9375 C-9.25518311 98.67928467 -8.57286621 98.42106934 -7.86987305 98.1550293 C-0.36288681 95.15206316 6.26848183 90.85454857 12.98071289 86.3996582 C20.08940666 81.69958198 20.08940666 81.69958198 24.625 82.3125 C26.625 84.3125 26.625 84.3125 27.125 87.6875 C26.82751064 96.3303489 21.77165986 103.659989 15.75 109.5 C-2.96265021 125.31815614 -26.6928378 133.8105514 -51.06445312 132.52832031 C-55.71107558 132.09429514 -59.42682814 130.73415197 -63.375 128.3125 C-64.33019531 127.80396484 -64.33019531 127.80396484 -65.3046875 127.28515625 C-70.80351003 123.96934266 -73.56105323 118.94039354 -76.375 113.3125 C-76.71789062 112.64734375 -77.06078125 111.9821875 -77.4140625 111.296875 C-83.46195257 96.94020137 -79.15854975 76.70813478 -73.75 62.75 C-68.8327527 50.83368231 -61.81679056 40.02135105 -53.375 30.3125 C-52.23611328 28.95705078 -52.23611328 28.95705078 -51.07421875 27.57421875 C-43.13237345 18.41639713 -34.18269132 11.62458366 -23.5625 5.875 C-22.64754761 5.37963745 -22.64754761 5.37963745 -21.71411133 4.87426758 C-14.46579198 1.10971297 -8.02906739 -0.03206497 0 0 Z " fill="#010101" transform="translate(443.375,138.6875)"/>
<path d="M0 0 C5.05509635 2.62284173 7.98170378 6.73000431 10 12 C10.35332089 13.66254421 10.69000321 15.32883547 11 17 C11.4125 16.41992188 11.825 15.83984375 12.25 15.2421875 C16.25246513 9.82813868 20.28487136 5.59404997 26 2 C26.59554687 1.62488281 27.19109375 1.24976563 27.8046875 0.86328125 C30.88925273 -0.34968835 33.63240213 -0.33972681 36.9375 -0.375 C38.14277344 -0.40335937 39.34804688 -0.43171875 40.58984375 -0.4609375 C44.67965453 0.09186625 46.16704694 1.03402132 49 4 C54.06878449 11.66987127 53.09128896 22.40178483 51.64111328 31.16992188 C48.41768267 45.74360814 40.32760321 64.14780502 27.5 72.5 C23.60967636 74.16728156 21.18247419 74.64345757 17 74 C14.49844719 71.6298588 14.02306459 70.19495143 13.61523438 66.74780273 C13.60814453 65.48911377 13.60105469 64.2304248 13.59375 62.93359375 C13.58291382 62.25829117 13.57207764 61.58298859 13.56091309 60.88722229 C13.51515535 58.00862389 13.50355784 55.13011771 13.48876953 52.2512207 C13.47308176 50.14501842 13.4400913 48.03956985 13.40625 45.93359375 C13.39916016 44.67603271 13.39207031 43.41847168 13.38476562 42.12280273 C13.27462849 39.00433028 13.27462849 39.00433028 11.47460938 37.06665039 C10.98798828 36.71465576 10.50136719 36.36266113 10 36 C6.84395834 45.36800434 4.99451297 55.02458984 3 64.6875 C2.65403069 66.34578347 2.30767882 68.00398716 1.9609375 69.66210938 C0.53045929 76.51997647 -0.88415562 83.3797987 -2.22810364 90.25518799 C-7.54711724 117.38127556 -7.54711724 117.38127556 -17.25390625 124.69921875 C-25.5862465 130.08459672 -34.98403949 133.50498889 -45 132 C-49.13702242 130.19475385 -50.59463173 128.68912606 -52.875 124.8125 C-62.28839018 94.33104607 -43.85786663 47.77587497 -30.4140625 21.3671875 C-23.87351787 9.16405855 -14.92470761 -2.16150938 0 0 Z " fill="#010101" transform="translate(404,416)"/>
<path d="M0 0 C4.90033627 2.84856946 8.03821376 7.28215203 9.75 12.625 C10.60150759 21.50966274 9.00626867 29.89916456 7.1875 38.5625 C6.77520967 40.58604891 6.36685833 42.6103684 5.95875549 44.63476562 C5.67153094 46.05853498 5.38296675 47.48203469 5.09312439 48.90527344 C3.98866907 54.35164074 2.96463656 59.8101743 1.96875 65.27734375 C1.66877061 66.9122035 1.368722 68.54705055 1.06860352 70.18188477 C0.63358953 72.55334348 0.20088029 74.92506579 -0.22293091 77.29855347 C-1.70888446 85.60188109 -3.42469744 93.75757319 -5.77734375 101.86328125 C-5.97727432 102.55743134 -6.1772049 103.25158142 -6.38319397 103.96676636 C-8.69300496 111.62140597 -12.14480942 119.39571989 -19.25 123.625 C-26.60643497 127.30321748 -34.70578466 128.09645052 -42.72265625 125.96875 C-46.93875071 124.14046231 -49.21279136 122.00146175 -51.44506836 117.84887695 C-53.12214101 113.21543603 -52.83134767 108.36872935 -52.75 103.5 C-52.73936523 102.35289551 -52.72873047 101.20579102 -52.71777344 100.02392578 C-52.48155325 89.23404546 -50.74495678 79.09268028 -48.25 68.625 C-47.95650868 67.2881597 -47.66473137 65.95094148 -47.375 64.61328125 C-35.48178285 12.95211926 -35.48178285 12.95211926 -18.4375 0.5625 C-12.54885882 -2.71782623 -6.17544757 -2.4631079 0 0 Z " fill="#020202" transform="translate(506.25,421.375)"/>
<path d="M0 0 C2.96649699 1.24905137 3.81878369 2.18398954 5.375 5 C7.30072243 10.55061172 7.7239583 15.52116411 7.6875 21.375 C7.68621094 22.23899414 7.68492187 23.10298828 7.68359375 23.99316406 C7.55880741 32.52542982 6.18521024 40.68165293 4.375 49 C5.8339426 48.52269162 7.29213496 48.04308958 8.75 47.5625 C9.56210937 47.29566406 10.37421875 47.02882813 11.2109375 46.75390625 C13.38531799 46.04820271 13.38531799 46.04820271 15.375 45 C15.91909428 48.10911017 15.88869584 50.21491768 14.1328125 52.8984375 C12.2990756 55.03638882 10.38332521 57.02496195 8.375 59 C7.66472656 59.70898438 6.95445312 60.41796875 6.22265625 61.1484375 C0.53150706 66.52952408 -5.05467785 70.39637255 -12.9375 71.4375 C-16.11507591 70.9202202 -17.42687507 70.35513386 -19.625 68 C-21.84312188 62.85871036 -21.92711641 58.18143782 -21.875 52.6875 C-21.88273438 51.88376953 -21.89046875 51.08003906 -21.8984375 50.25195312 C-21.88021996 44.59085342 -21.08104334 39.46234224 -19.625 34 C-19.45339355 33.34684814 -19.28178711 32.69369629 -19.10498047 32.02075195 C-10.32622062 0 -10.32622062 0 0 0 Z " fill="#FBFBFB" transform="translate(855.625,436)"/>
<path d="M0 0 C4.50400196 2.27135915 6.81356301 4.38418858 9 9 C10.58661321 19.81781737 7.37354418 30.36761191 1.28125 39.3203125 C-2.66319206 44.49137984 -6.77449872 48.3727233 -13.39453125 49.35546875 C-17.76725176 49.59803346 -20.98620048 49.54037021 -24.5 46.75 C-29.5260269 41.2213704 -29.58370845 36.24804499 -29.37890625 28.9609375 C-28.38977099 18.62090494 -22.76072906 8.64737836 -15.375 1.4375 C-10.35565817 -0.70036782 -5.37681686 -0.80326604 0 0 Z " fill="#030303" transform="translate(518,360)"/>
<path d="M0 0 C2.43463189 3.65194783 2.30662774 6.40308708 2.25 10.625 C2.23876099 11.70914185 2.23876099 11.70914185 2.22729492 12.81518555 C1.93083912 27.55682281 -4.44937355 42.63995073 -14.9375 53.1875 C-15.618125 53.785625 -16.29875 54.38375 -17 55 C-21.64484806 39.82682967 -21.7166737 24.44863263 -14.5390625 10.07421875 C-10.91186071 3.71280647 -8.02228232 -1.04638465 0 0 Z " fill="#F8F8F8" transform="translate(639,103)"/>
<path d="M0 0 C1.32 0.33 2.64 0.66 4 1 C5.08249383 19.08967467 0.61187623 36.66060619 -11.625 50.5625 C-14.22801315 53.34361405 -16.77962342 55.94290231 -20 58 C-20.99 58 -21.98 58 -23 58 C-21.40979727 37.8757103 -15.10685975 14.35151676 0 0 Z " fill="#F9F9F9" transform="translate(594,435)"/>
<path d="M0 0 C1.32 0.33 2.64 0.66 4 1 C5.08249383 19.08967467 0.61187623 36.66060619 -11.625 50.5625 C-14.22801315 53.34361405 -16.77962342 55.94290231 -20 58 C-20.99 58 -21.98 58 -23 58 C-21.40979727 37.8757103 -15.10685975 14.35151676 0 0 Z " fill="#F9F9F9" transform="translate(434,159)"/>
<path d="M0 0 C3.19221862 2.68458753 4.73558531 6.15449535 6.5625 9.8125 C9.783211 16.08267295 13.4646295 21.78166355 17.67407227 27.4309082 C19.73236056 30.19348816 21.60159276 32.84205838 23 36 C16.41199411 37.97640177 8.65965569 38.25983691 2.4375 35.3125 C-2.45961059 30.66652329 -5.11080511 27.45158209 -5.34179688 20.640625 C-5.46639414 12.60776606 -4.61759432 6.86042584 0 0 Z " fill="#F8F8F8" transform="translate(595,209)"/>
</svg>
